<?xml version="1.0" encoding="UTF-8" standalone="no"?>
<svg
   xmlns:dc="http://purl.org/dc/elements/1.1/"
   xmlns:cc="http://creativecommons.org/ns#"
   xmlns:rdf="http://www.w3.org/1999/02/22-rdf-syntax-ns#"
   xmlns:svg="http://www.w3.org/2000/svg"
   xmlns="http://www.w3.org/2000/svg"
   xmlns:sodipodi="http://sodipodi.sourceforge.net/DTD/sodipodi-0.dtd"
   xmlns:inkscape="http://www.inkscape.org/namespaces/inkscape"
   viewBox="0 0 512 448"
   version="1.1"
   id="svg4"
   sodipodi:docname="soundcloud.svg"
   width="512"
   height="448"
   inkscape:version="0.92.5 (2060ec1f9f, 2020-04-08)">
  <metadata
     id="metadata10">
    <rdf:RDF>
      <cc:Work
         rdf:about="">
        <dc:format>image/svg+xml</dc:format>
        <dc:type
           rdf:resource="http://purl.org/dc/dcmitype/StillImage" />
        <dc:title></dc:title>
      </cc:Work>
    </rdf:RDF>
  </metadata>
  <defs
     id="defs8" />
  <sodipodi:namedview
     pagecolor="#ffffff"
     bordercolor="#666666"
     borderopacity="1"
     objecttolerance="10"
     gridtolerance="10"
     guidetolerance="10"
     inkscape:pageopacity="0"
     inkscape:pageshadow="2"
     inkscape:window-width="1750"
     inkscape:window-height="976"
     id="namedview6"
     showgrid="false"
     inkscape:zoom="0.4609375"
     inkscape:cx="317.83051"
     inkscape:cy="256"
     inkscape:window-x="141"
     inkscape:window-y="129"
     inkscape:window-maximized="0"
     inkscape:current-layer="svg4" />
  <!-- Font Awesome Free 5.15.4 by @fontawesome - https://fontawesome.com License - https://fontawesome.com/license/free (Icons: CC BY 4.0, Fonts: SIL OFL 1.1, Code: MIT License) -->
  <path
     d="m 89.133899,224.20003 4.640723,52.00811 -4.640723,54.64852 c -0.240038,2.00031 -1.760276,3.52054 -3.52055,3.52054 -1.760274,0 -3.360523,-1.52023 -3.360523,-3.52054 l -4.4807,-54.64852 4.4807,-52.00811 c 0,-1.76027 1.520236,-3.36052 3.360523,-3.36052 1.760274,0 3.280512,1.60025 3.52055,3.36052 z m 17.122671,-36.48569 c -2.24035,0 -3.76059,1.76028 -4.00063,4.00062 l -4.00062,84.49318 4.00062,54.64852 c 0.24004,2.24035 1.76028,4.00062 4.00063,4.00062 2.00031,0 3.76059,-1.76027 3.76059,-4.00062 l 4.64072,-54.64852 -4.64072,-84.49318 c 0,-2.24034 -1.76028,-4.00062 -3.76059,-4.00062 z m 20.40318,-19.28301 c -2.48039,0 -4.24066,1.76028 -4.48069,4.24067 l -3.52056,104.01622 3.52056,54.24845 c 0.24003,2.48039 2.0003,4.24066 4.48069,4.24066 2.24035,0 4.24066,-1.76027 4.24066,-4.24066 l 4.24066,-54.24845 -4.24066,-104.01622 c 0,-2.48039 -2.00031,-4.24067 -4.24066,-4.24067 z M 5.7608984,245.72339 c -1.1201746,0 -1.7602744,0.88013 -2.0003118,2.00031 L 2.3647394e-7,276.20814 3.7605866,304.2125 c 0.2400374,1.12018 0.8801372,2.00032 2.0003118,2.00032 1.1201748,0 1.7602745,-0.88014 2.000312,-2.00032 L 12.241909,276.20814 7.7612104,247.7237 c -0.2400375,-1.12018 -0.8801372,-2.00031 -2.000312,-2.00031 z M 24.643842,228.20065 c -1.120174,0 -2.000311,0.88014 -2.000311,2.00031 l -5.120799,46.00718 5.120799,44.887 c 0,1.36021 0.880137,2.24035 2.000311,2.24035 1.120175,0 2.000312,-0.88014 2.24035,-2.00031 l 5.760898,-45.12704 -5.760898,-46.00718 c -0.240038,-1.12017 -1.120175,-2.00031 -2.24035,-2.00031 z m 20.243157,-9.12142 c -1.360212,0 -2.480387,1.12017 -2.640412,2.64041 l -4.640723,54.4885 4.640723,52.64821 c 0.240038,1.36021 1.360213,2.48039 2.640412,2.48039 1.360212,0 2.480387,-1.12018 2.480387,-2.48039 l 5.52086,-52.64821 -5.52086,-54.4885 c 0,-1.52024 -1.120175,-2.64041 -2.480387,-2.64041 z m 20.243156,-1.76027 c -1.520237,0 -2.880449,1.12017 -2.880449,2.88044 l -4.640724,56.00874 4.640724,54.24845 c 0,1.76028 1.360212,2.88046 2.880449,2.88046 1.520238,0 2.880449,-1.12018 3.120487,-2.88046 l 5.120799,-54.24845 -5.120799,-56.00874 c -0.240038,-1.76027 -1.600249,-2.88044 -3.120487,-2.88044 z M 258.28027,128.58512 c -0.88013,-0.6401 -2.24035,-1.12017 -3.36052,-1.12017 -1.76028,0 -3.36053,0.6401 -4.4807,1.52024 -1.52024,1.36021 -2.48038,3.36052 -2.64041,5.36083 v 0.6401 l -2.64041,141.38204 1.36021,26.00406 1.36021,25.36395 c 0.24004,3.76059 3.36053,6.88107 7.12111,6.88107 3.76059,0 6.88108,-3.12048 6.88108,-6.88107 l 3.12048,-51.36801 -3.12048,-142.02214 c -0.32006,-2.40038 -1.60025,-4.64072 -3.60057,-5.7609 z m -21.36333,12.24191 c -1.12017,-0.6401 -2.24035,-1.12018 -3.52055,-1.12018 -1.28019,0 -2.48038,0.48008 -3.52055,1.12018 -1.76027,1.12017 -2.88044,3.12049 -2.88044,5.36084 l -0.24004,1.36021 -2.24036,128.66006 c 0,0 0,0.24004 2.4804,52.48818 v 0.24004 c 0,1.36021 0.48007,2.64041 1.36021,3.76059 1.36021,1.52023 3.12048,2.48038 5.1208,2.48038 1.76027,0 3.36051,-0.88013 4.4807,-2.0003 1.36021,-1.12019 2.00031,-2.64042 2.00031,-4.48071 l 0.24003,-5.36083 2.48039,-46.88731 -2.64041,-130.26031 c -0.24004,-2.24035 -1.36021,-4.24067 -3.12049,-5.36084 z m -89.1339,18.00281 c -2.48038,0 -4.64072,2.24035 -4.64072,4.88075 l -3.52054,112.49755 3.52054,53.76838 c 0.24003,2.64041 2.24035,4.64072 4.64072,4.64072 2.64041,0 4.64072,-2.00031 4.88076,-4.64072 l 4.00063,-53.76838 -4.00063,-112.49755 c -0.16002,-2.6404 -2.16033,-4.88075 -4.88076,-4.88075 z m 301.407,50.24783 c -8.64135,0 -16.88263,1.76028 -24.48382,4.88076 -5.1208,-56.64883 -52.64821,-101.13576 -110.65726,-101.13576 -14.24221,0 -28.00436,2.64041 -40.24627,7.52117 -4.88076,1.76027 -6.24097,3.52055 -6.24097,7.36115 v 199.79115 c 0,4.00062 3.12049,6.88106 6.88108,7.36114 h 174.66723 c 34.6454,0 62.8898,-28.00436 62.8898,-62.64976 0.08,-34.88544 -28.16439,-63.12985 -62.80979,-63.12985 z M 211.79302,160.83015 c -3.36052,0 -6.00093,2.64041 -6.24097,6.24097 l -2.64041,109.37706 2.64041,52.48818 c 0.24004,3.36052 2.88045,6.00094 6.24097,6.00094 3.36053,0 6.00094,-2.64042 6.00094,-6.00094 l 3.12049,-52.48818 -3.12049,-109.37706 c -0.24004,-3.60056 -2.64041,-6.24097 -6.00094,-6.24097 z m -42.88668,-6.24097 c -2.64041,0 -5.1208,2.48038 -5.1208,5.36084 l -3.12049,116.25812 3.12049,53.52834 c 0.24004,2.88045 2.48039,5.1208 5.1208,5.1208 2.88044,0 5.1208,-2.24035 5.36084,-5.1208 l 3.52054,-53.52834 -3.52054,-116.25812 c -0.24004,-2.88046 -2.4804,-5.36084 -5.36084,-5.36084 z m 21.36333,2.72042 c -3.12049,0 -5.52087,2.48038 -5.52087,5.52086 l -3.12048,113.37768 3.12048,53.12828 c 0.24004,3.12049 2.4804,5.52086 5.52087,5.52086 3.04048,0 5.52086,-2.48038 5.52086,-5.52086 l 3.36053,-53.12828 -3.36053,-113.37768 c 0,-3.12048 -2.40038,-5.52086 -5.52086,-5.52086 z"
     id="path2"
     inkscape:connector-curvature="0"
     style="stroke-width:0.80012476" />
</svg>
