<svg xmlns="http://www.w3.org/2000/svg" viewBox="0 0 300 300" width="64" height="64">
	<defs>
		<linearGradient id="grd1" gradientUnits="userSpaceOnUse"  x1="146.999" y1="304.491" x2="146.999" y2="1.422">
			<stop offset="0" stop-color="#822cbe"  />
			<stop offset="1" stop-color="#d772fb"  />
		</linearGradient>
	</defs>
	<style>
		tspan { white-space:pre }
		.shp0 { fill: url(#grd1) } 
		.shp1 { fill: #ffffff } 
	</style>
	<path id="_Path_" class="shp0" d="M294 260.03C292.96 262.48 291.77 264.87 290.44 267.17C289.1 269.47 287.62 271.69 286.01 273.81C284.4 275.93 282.65 277.94 280.79 279.84C278.92 281.74 276.94 283.52 274.85 285.18C273.28 286.41 271.66 287.58 269.98 288.66C268.3 289.74 266.56 290.74 264.79 291.66C263.01 292.58 261.19 293.41 259.34 294.16C257.48 294.9 255.59 295.55 253.68 296.12C250.72 296.85 247.75 297.48 244.75 298.01C241.76 298.53 238.75 298.96 235.72 299.27C232.7 299.59 229.66 299.8 226.62 299.91C223.58 300.02 220.54 300.02 217.5 299.91L82.5 299.91C79.46 300.02 76.42 300.02 73.38 299.91C70.34 299.8 67.3 299.59 64.28 299.27C61.25 298.96 58.24 298.53 55.25 298.01C52.25 297.48 49.28 296.85 46.32 296.12C44.41 295.55 42.52 294.9 40.66 294.16C38.81 293.41 36.99 292.58 35.21 291.66C33.44 290.74 31.7 289.74 30.02 288.66C28.34 287.58 26.72 286.41 25.15 285.18C23.06 283.52 21.08 281.74 19.21 279.84C17.35 277.94 15.6 275.93 13.99 273.81C12.38 271.69 10.9 269.47 9.56 267.17C8.23 264.87 7.04 262.48 6 260.03C4.85 256.62 3.86 253.15 3.03 249.65C2.2 246.15 1.53 242.61 1.03 239.04C0.53 235.48 0.19 231.89 0.02 228.3C-0.15 224.7 -0.16 221.1 0 217.5L0 217.5L0 82.5L0 82.5C-0.16 78.9 -0.15 75.3 0.02 71.7C0.19 68.11 0.53 64.52 1.03 60.96C1.53 57.39 2.2 53.85 3.03 50.35C3.86 46.85 4.85 43.38 6 39.97C7.04 37.52 8.23 35.13 9.56 32.83C10.9 30.53 12.38 28.31 13.99 26.19C15.6 24.07 17.35 22.06 19.21 20.16C21.08 18.26 23.06 16.48 25.15 14.82C26.72 13.59 28.34 12.42 30.02 11.34C31.7 10.26 33.44 9.26 35.21 8.34C36.99 7.42 38.81 6.59 40.66 5.84C42.52 5.1 44.41 4.45 46.32 3.88C49.27 3.14 52.25 2.5 55.24 1.97C58.24 1.44 61.25 1.01 64.28 0.68C67.3 0.36 70.34 0.14 73.38 0.02C76.42 -0.09 79.46 -0.1 82.5 0L217.5 0C220.54 -0.1 223.58 -0.1 226.62 0C229.66 0.11 232.7 0.32 235.72 0.64C238.75 0.96 241.76 1.38 244.75 1.9C247.75 2.43 250.72 3.06 253.68 3.79C255.59 4.36 257.48 5.01 259.34 5.76C261.19 6.5 263.01 7.33 264.79 8.25C266.56 9.17 268.3 10.17 269.98 11.25C271.66 12.33 273.28 13.5 274.85 14.74C276.94 16.39 278.92 18.17 280.79 20.07C282.65 21.97 284.4 23.98 286.01 26.1C287.62 28.22 289.1 30.44 290.44 32.74C291.77 35.05 292.96 37.43 294 39.88C295.15 43.3 296.14 46.77 296.98 50.28C297.81 53.79 298.48 57.34 298.98 60.91C299.48 64.49 299.82 68.08 299.99 71.68C300.16 75.29 300.16 78.9 300 82.5L300 217.5C300.16 221.1 300.15 224.7 299.98 228.3C299.81 231.89 299.47 235.48 298.97 239.04C298.47 242.61 297.8 246.15 296.97 249.65C296.14 253.15 295.15 256.62 294 260.03L294 260.03Z" />
	<path id="Layer" fill-rule="evenodd" class="shp1" d="M140.84 262.64C131.89 259.44 129.97 255.09 126.3 229.6C122.03 199.97 121.1 181.63 123.57 175.82C126.85 168.12 135.75 163.75 148.2 163.7C160.55 163.65 169.53 168.06 172.83 175.82C175.31 181.62 174.38 199.97 170.11 229.6C167.21 250.3 165.61 255.53 161.61 259.05C156.11 263.92 148.31 265.27 140.91 262.65L140.84 262.64ZM102.61 232.24C71.71 217.04 51.91 191.32 44.71 157.1C42.91 148.27 42.61 127.2 44.31 119.1C48.81 97.35 57.41 80.34 71.71 65.3C92.31 43.58 118.81 32.1 148.31 32.1C177.51 32.1 203.91 43.37 224.01 64.44C239.31 80.34 247.91 97.17 252.31 119.34C253.81 126.72 253.81 146.84 252.41 155.14C247.81 181.38 233.21 205.28 211.91 221.34C204.31 227.08 185.71 237.1 182.71 237.1C181.61 237.1 181.51 235.96 182.01 231.35C182.91 223.95 183.81 222.41 188.01 220.65C194.71 217.85 206.11 209.73 213.11 202.71C225.21 190.71 234.11 175.01 238.21 158.51C240.81 148.21 240.51 125.31 237.61 114.71C228.51 81.01 201.01 54.81 167.31 47.81C157.51 45.81 139.71 45.81 129.81 47.81C95.71 54.81 67.51 82.31 58.91 116.91C56.61 126.31 56.61 149.21 58.91 158.61C64.61 181.51 79.41 202.51 98.81 215.01C102.61 217.51 107.21 220.11 109.11 220.91C113.31 222.71 114.21 224.21 115.01 231.61C115.51 236.11 115.41 237.41 114.31 237.41C113.61 237.41 108.51 235.21 103.11 232.61L102.61 232.24ZM103.01 191.56C92.61 183.26 83.41 168.54 79.61 154.1C77.31 145.38 77.31 128.8 79.71 120.1C86.01 96.62 103.31 78.42 127.31 69.87C135.51 66.97 153.71 66.32 163.81 68.55C198.61 76.3 223.31 111.15 218.51 145.72C216.61 159.65 211.81 171.09 203.31 181.72C199.11 187.09 188.91 196.1 187.11 196.1C186.81 196.1 186.51 192.7 186.51 188.56L186.51 181L191.71 174.8C211.31 151.32 209.91 118.52 188.51 97C180.21 88.62 170.61 83.7 158.21 81.43C150.21 79.95 148.51 79.95 140.11 81.33C127.36 83.41 117.48 88.35 108.71 97.03C87.21 118.33 85.81 151.3 105.41 174.8L110.57 181L110.57 188.6C110.57 192.8 110.24 196.2 109.83 196.2C109.43 196.2 106.53 194.2 103.43 191.7L103.01 191.56ZM137.71 150.73C128.81 146.59 124.01 138.78 123.91 128.6C123.91 119.45 129.01 111.47 137.81 106.8C143.41 103.86 153.31 103.86 158.91 106.82C165.01 109.99 170.01 116.14 171.91 122.56C177.71 142.28 156.81 159.56 137.91 150.73L137.71 150.73Z" />
	<path id="Layer" class="shp1" d="M149.89 154.61C136.1 154.61 124.95 143.46 124.95 129.67C124.95 115.88 136.1 104.73 149.89 104.73C163.68 104.73 174.83 115.88 174.83 129.67C174.83 143.46 163.68 154.61 149.89 154.61Z" />
	<path id="Layer" class="shp1" d="M152.28 164.27C154.01 164.5 157.45 164.95 160.63 165.97C163.83 166.97 166.73 168.54 168.99 170.15C171.19 171.75 172.79 173.41 173.79 175.43C174.79 177.45 175.29 179.85 175.59 183.78C175.79 187.72 175.79 193.18 174.89 203.38C173.99 213.55 172.19 228.46 170.79 238.01C169.39 247.61 168.39 251.81 167.09 254.91C165.79 258.11 164.09 260.21 162.19 261.71C160.29 263.21 158.09 264.11 155.99 264.61C153.89 265.11 151.99 265.11 150.19 265.11C148.39 265.11 146.69 265.11 144.39 264.61C142.09 264.11 139.09 263.21 136.89 261.41C134.59 259.61 133.09 257.01 131.89 253.61C130.69 250.21 129.79 246.11 128.59 237.91C127.39 229.71 125.79 217.51 124.79 208.21C123.79 198.91 123.39 192.51 123.31 188.21C123.21 183.91 123.41 181.78 123.91 179.71C124.41 177.71 125.21 175.81 126.31 174.21C127.41 172.61 128.85 171.21 130.31 170.11C131.74 169.01 133.21 168.21 134.97 167.59C136.71 166.89 138.8 166.29 141.37 165.79C143.97 165.29 146.97 164.79 148.51 164.59C150.05 164.36 150.05 164.36 151.77 164.59L152.28 164.27Z" />
</svg>